<svg xmlns="http://www.w3.org/2000/svg" xmlns:xlink="http://www.w3.org/1999/xlink" width="500" zoomAndPan="magnify" viewBox="0 0 375 374.999991" height="500" preserveAspectRatio="xMidYMid meet" version="1.0"><defs><g/></defs><g fill="#000000" fill-opacity="1"><g transform="translate(5.844972, 172.441818)"><g><path d="M 67.984375 -50.921875 L 58.109375 0 L 44.78125 0 L 34.21875 -35.71875 L 23.578125 0 L 10.265625 0 L 0.375 -50.921875 L 12.734375 -50.921875 L 18.71875 -15.796875 L 28.671875 -50.921875 L 39.6875 -50.921875 L 49.640625 -15.796875 L 55.625 -50.921875 Z M 67.984375 -50.921875 "/></g></g></g><g fill="#000000" fill-opacity="1"><g transform="translate(74.198772, 172.441818)"><g><path d="M 15.71875 0 L 4.5 0 L 4.5 -50.921875 L 15.71875 -50.921875 Z M 15.71875 0 "/></g></g></g><g fill="#000000" fill-opacity="1"><g transform="translate(94.412935, 172.441818)"><g><path d="M 4.5 0 L 4.5 -50.921875 L 15.71875 -50.921875 L 15.71875 -10.1875 L 34 -10.1875 L 34 0 Z M 4.5 0 "/></g></g></g><g fill="#000000" fill-opacity="1"><g transform="translate(131.023025, 172.441818)"><g><path d="M 15.578125 -10.328125 L 18.9375 -10.328125 C 21.832031 -10.328125 24.363281 -11 26.53125 -12.34375 C 28.707031 -13.695312 30.40625 -15.519531 31.625 -17.8125 C 32.851562 -20.113281 33.46875 -22.660156 33.46875 -25.453125 C 33.46875 -28.296875 32.851562 -30.851562 31.625 -33.125 C 30.40625 -35.394531 28.707031 -37.191406 26.53125 -38.515625 C 24.363281 -39.835938 21.832031 -40.5 18.9375 -40.5 L 15.578125 -40.5 Z M 4.5 -50.921875 L 19.625 -50.921875 C 23.21875 -50.921875 26.546875 -50.269531 29.609375 -48.96875 C 32.679688 -47.664062 35.363281 -45.867188 37.65625 -43.578125 C 39.957031 -41.285156 41.742188 -38.585938 43.015625 -35.484375 C 44.285156 -32.390625 44.921875 -29.046875 44.921875 -25.453125 C 44.921875 -21.859375 44.285156 -18.515625 43.015625 -15.421875 C 41.742188 -12.328125 39.972656 -9.628906 37.703125 -7.328125 C 35.429688 -5.035156 32.75 -3.238281 29.65625 -1.9375 C 26.5625 -0.644531 23.21875 0 19.625 0 L 4.5 0 Z M 4.5 -50.921875 "/></g></g></g><g fill="#000000" fill-opacity="1"><g transform="translate(178.563723, 172.441818)"><g><path d="M 34 -10.1875 L 34 0 L 4.5 0 L 4.5 -50.921875 L 34 -50.921875 L 34 -40.734375 L 15.71875 -40.734375 L 15.71875 -30.625 L 33.25 -30.625 L 33.25 -20.4375 L 15.71875 -20.4375 L 15.71875 -10.1875 Z M 34 -10.1875 "/></g></g></g><g fill="#000000" fill-opacity="1"><g transform="translate(217.045493, 172.441818)"><g><path d="M 15.71875 0 L 4.5 0 L 4.5 -50.921875 L 15.71875 -50.921875 Z M 15.71875 0 "/></g></g></g><g fill="#000000" fill-opacity="1"><g transform="translate(237.259655, 172.441818)"><g><path d="M 44.46875 0 L 33.25 0 L 15.71875 -31.75 L 15.71875 0 L 4.5 0 L 4.5 -50.921875 L 15.71875 -50.921875 L 33.25 -19.171875 L 33.25 -50.921875 L 44.46875 -50.921875 Z M 44.46875 0 "/></g></g></g><g fill="#000000" fill-opacity="1"><g transform="translate(286.222827, 172.441818)"><g><path d="M 34 -10.1875 L 34 0 L 4.5 0 L 4.5 -50.921875 L 34 -50.921875 L 34 -40.734375 L 15.71875 -40.734375 L 15.71875 -30.625 L 33.25 -30.625 L 33.25 -20.4375 L 15.71875 -20.4375 L 15.71875 -10.1875 Z M 34 -10.1875 "/></g></g></g><g fill="#000000" fill-opacity="1"><g transform="translate(324.704614, 172.441818)"><g><path d="M 15.71875 -18.1875 L 15.71875 0 L 4.5 0 L 4.5 -50.921875 L 23.578125 -50.921875 C 26.328125 -50.921875 28.882812 -50.234375 31.25 -48.859375 C 33.625 -47.484375 35.535156 -45.570312 36.984375 -43.125 C 38.429688 -40.675781 39.15625 -37.832031 39.15625 -34.59375 C 39.15625 -31.75 38.628906 -29.226562 37.578125 -27.03125 C 36.535156 -24.832031 35.140625 -23.035156 33.390625 -21.640625 C 31.648438 -20.242188 29.703125 -19.269531 27.546875 -18.71875 L 42.15625 0 L 27.921875 0 L 15.796875 -18.1875 Z M 21.71875 -42.078125 L 15.71875 -42.078125 L 15.71875 -27.03125 L 21.71875 -27.03125 C 23.363281 -27.03125 24.894531 -27.675781 26.3125 -28.96875 C 27.738281 -30.269531 28.453125 -32.144531 28.453125 -34.59375 C 28.453125 -36.9375 27.738281 -38.769531 26.3125 -40.09375 C 24.894531 -41.414062 23.363281 -42.078125 21.71875 -42.078125 Z M 21.71875 -42.078125 "/></g></g></g><g fill="#000000" fill-opacity="1"><g transform="translate(5.844972, 236.695759)"><g><path d="M 67.984375 0 L 55.625 0 L 49.640625 -35.109375 L 39.6875 0 L 28.671875 0 L 18.71875 -35.109375 L 12.734375 0 L 0.375 0 L 10.265625 -50.921875 L 23.578125 -50.921875 L 34.21875 -15.203125 L 44.78125 -50.921875 L 58.109375 -50.921875 Z M 67.984375 0 "/></g></g></g><g fill="#000000" fill-opacity="1"><g transform="translate(74.198772, 236.695759)"><g><path d="M 34 -10.1875 L 34 0 L 4.5 0 L 4.5 -50.921875 L 34 -50.921875 L 34 -40.734375 L 15.71875 -40.734375 L 15.71875 -30.625 L 33.25 -30.625 L 33.25 -20.4375 L 15.71875 -20.4375 L 15.71875 -10.1875 Z M 34 -10.1875 "/></g></g></g><g fill="#000000" fill-opacity="1"><g transform="translate(112.680542, 236.695759)"><g><path d="M 39.828125 -10.1875 L 39.828125 0 L 1.5 0 L 22.765625 -40.734375 L 3 -40.734375 L 3 -50.921875 L 41.03125 -50.921875 L 19.765625 -10.1875 Z M 39.828125 -10.1875 "/></g></g></g><g fill="#000000" fill-opacity="1"><g transform="translate(155.205141, 236.695759)"><g><path d="M 32.203125 -19.46875 L 25.75 -37.59375 L 19.3125 -19.46875 Z M 51.21875 0 L 39.15625 0 L 35.484375 -10.265625 L 16.09375 -10.265625 L 12.421875 0 L 0.375 0 L 21.046875 -50.921875 L 30.546875 -50.921875 Z M 51.21875 0 "/></g></g></g></svg>