<svg xmlns="http://www.w3.org/2000/svg" xmlns:xlink="http://www.w3.org/1999/xlink" width="500" zoomAndPan="magnify" viewBox="0 0 375 374.999991" height="500" preserveAspectRatio="xMidYMid meet" version="1.0"><defs><g/></defs><rect x="-37.5" width="450" fill="#ffffff" y="-37.499999" height="449.999989" fill-opacity="1"/><rect x="-37.5" width="450" fill="#ffffff" y="-37.499999" height="449.999989" fill-opacity="1"/><g fill="#ffffff" fill-opacity="1"><g transform="translate(90.526844, 171.114027)"><g><path d="M 166.359375 -124.59375 L 142.171875 0 L 109.5625 0 L 83.734375 -87.390625 L 57.71875 0 L 25.09375 0 L 0.921875 -124.59375 L 31.140625 -124.59375 L 45.796875 -38.65625 L 70.171875 -124.59375 L 97.109375 -124.59375 L 121.46875 -38.65625 L 136.125 -124.59375 Z M 166.359375 -124.59375 "/></g></g></g><g fill="#ffffff" fill-opacity="1"><g transform="translate(90.526844, 328.614017)"><g><path d="M 166.359375 0 L 136.125 0 L 121.46875 -85.921875 L 97.109375 0 L 70.171875 0 L 45.796875 -85.921875 L 31.140625 0 L 0.921875 0 L 25.09375 -124.59375 L 57.71875 -124.59375 L 83.734375 -37.1875 L 109.5625 -124.59375 L 142.171875 -124.59375 Z M 166.359375 0 "/></g></g></g></svg>